<svg width="23" height="23" viewBox="0 0 23 23" fill="none" xmlns="http://www.w3.org/2000/svg">
<path d="M10.8943 0C8.947 0.0268339 4.76345 0.329673 2.42611 2.36426C0.690039 4.01262 0.0776635 6.42096 0.0140007 9.40815C-0.049662 12.3944 -0.132525 17.994 5.55873 19.5121H5.56176L5.55771 21.8274C5.55771 21.8274 5.52033 22.7637 6.17413 22.9554C6.95931 23.1873 7.42111 22.4762 8.17496 21.7076C8.58624 21.286 9.15719 20.6688 9.58666 20.1934C13.4772 20.5059 16.4703 19.7948 16.8119 19.6903C17.596 19.4488 22.0423 18.9083 22.7659 13.3106C23.5136 7.54128 22.4021 3.88995 20.4012 2.24542C19.799 1.71833 17.3636 0.0412092 11.9381 0.019167C11.9381 0.019167 11.539 -0.00479176 10.8902 0.00287506L10.8943 0ZM10.9529 1.62249C11.5036 1.61866 11.8421 1.63878 11.8421 1.63878C16.4319 1.65795 18.6298 2.96898 19.1401 3.4079C20.8327 4.78314 21.6967 8.07316 21.0662 12.8927V12.8946C20.4558 17.5695 16.8483 17.8627 16.1833 18.0649C15.9004 18.1512 13.271 18.7712 9.9656 18.5671C9.9656 18.5671 7.50398 21.3847 6.73497 22.1169C6.61371 22.2319 6.47224 22.2769 6.37927 22.2549C6.2479 22.2232 6.21152 22.0747 6.21253 21.8581L6.23274 18.0074C1.42065 16.7424 1.70056 11.9775 1.75614 9.4829C1.81071 6.98735 2.30485 4.94222 3.77314 3.56699C5.75376 1.86783 9.30472 1.63303 10.9579 1.62153L10.9529 1.62249ZM11.3369 4.11612C11.2585 4.11987 11.1847 4.1519 11.1304 4.20565C11.0762 4.25939 11.0457 4.33078 11.0452 4.40517C11.0446 4.47957 11.0742 4.55133 11.1276 4.60575C11.1811 4.66017 11.2545 4.69312 11.3328 4.69784C12.9739 4.70743 14.3098 5.21248 15.4032 6.22354C16.4875 7.22598 17.0403 8.58875 17.0534 10.377C17.0554 10.5371 17.1949 10.6645 17.3636 10.6645C17.4444 10.6635 17.5215 10.6324 17.5782 10.5779C17.635 10.5233 17.6668 10.4498 17.6668 10.3732C17.6526 8.47184 17.0423 6.92697 15.8317 5.80762C14.6292 4.69593 13.1103 4.12762 11.3369 4.11612ZM7.33522 4.78218C7.12038 4.75397 6.90171 4.79336 6.71274 4.89431L6.70263 4.89622C6.26811 5.13294 5.87805 5.43482 5.54458 5.78941C5.54256 5.79324 5.53852 5.79324 5.53649 5.79707C5.26669 6.10662 5.11208 6.4085 5.07165 6.70559C5.06374 6.7499 5.06137 6.79493 5.06458 6.83976C5.06458 6.9701 5.08681 7.09852 5.13026 7.2231L5.1434 7.23269C5.27982 7.69269 5.62138 8.45554 6.36108 9.72824C6.7855 10.4642 7.27358 11.1658 7.82229 11.8232C8.09513 12.1529 8.38818 12.4682 8.70144 12.7662L8.83483 12.8927C9.14809 13.1879 9.48156 13.4677 9.82918 13.7265C10.523 14.247 11.2619 14.7109 12.0382 15.1132C13.3802 15.8157 14.1865 16.1387 14.6696 16.269L14.6797 16.2824C14.8555 16.3369 15.0416 16.3549 15.2254 16.3351C15.5386 16.3006 15.859 16.153 16.1833 15.8943C16.1874 15.8943 16.1864 15.8924 16.1914 15.8895C16.5653 15.5732 16.8816 15.1995 17.1312 14.7893L17.1342 14.7797C17.3616 14.3657 17.2858 13.9728 16.9523 13.7064C16.9483 13.7064 16.247 13.1505 15.9044 12.9109C15.5406 12.6665 15.1668 12.4394 14.7797 12.2305C14.2644 11.9574 13.7369 12.1289 13.5186 12.3972L13.0669 12.9378C12.8345 13.209 12.403 13.1735 12.403 13.1735C9.25015 12.4107 8.40637 9.38323 8.40637 9.38323C8.40637 9.38323 8.36898 8.97497 8.65698 8.75455L9.2259 8.32521C9.50582 8.11916 9.6867 7.6189 9.39769 7.12918C9.17821 6.76145 8.93873 6.40478 8.68022 6.06062C8.40884 5.72383 8.12919 5.39311 7.84149 5.06873C7.71477 4.91823 7.53431 4.81697 7.33421 4.7841L7.33522 4.78218ZM11.8725 5.62553C11.7912 5.62324 11.7124 5.65164 11.6533 5.70448C11.5942 5.75732 11.5596 5.83027 11.5572 5.90728C11.5548 5.9843 11.5847 6.05907 11.6404 6.11514C11.6961 6.17122 11.7731 6.204 11.8543 6.20629C13.0265 6.28775 13.8925 6.65288 14.5271 7.3084C15.1637 7.96774 15.4669 8.76892 15.4426 9.77136C15.447 9.84506 15.4806 9.91447 15.5366 9.96574C15.5926 10.017 15.6669 10.0464 15.7448 10.0479C15.8226 10.0495 15.8982 10.0232 15.9564 9.97423C16.0147 9.92527 16.0513 9.85728 16.059 9.78382C16.0843 8.65775 15.7215 7.68215 14.9808 6.91451C14.233 6.13825 13.1851 5.7137 11.8987 5.62457H11.8745L11.8725 5.62553ZM12.3403 7.18764C12.2625 7.18872 12.188 7.21768 12.1318 7.2687C12.0756 7.31972 12.0418 7.38902 12.0372 7.46269C12.0291 7.62274 12.1584 7.75978 12.3282 7.76936C12.8567 7.7962 13.2124 7.93707 13.4529 8.17379C13.6954 8.40858 13.845 8.76797 13.8733 9.28931C13.8837 9.36157 13.9223 9.42749 13.9815 9.47407C14.0406 9.52064 14.1161 9.54448 14.1929 9.54087C14.2697 9.53726 14.3423 9.50646 14.3963 9.45456C14.4503 9.40266 14.4818 9.33344 14.4846 9.26056C14.4543 8.64338 14.2674 8.13162 13.8985 7.7684C13.5277 7.40615 12.9962 7.21831 12.3626 7.18668H12.3444L12.3403 7.18764Z" fill="#A39C9C"/>
</svg>
