<svg width="50" height="50" viewBox="0 0 28 28" fill="none" xmlns="http://www.w3.org/2000/svg">
<path d="M13.4254 6.33671e-05C11.7849 0.0679034 10.1551 0.423969 8.63858 1.05209C6.94486 1.75363 5.38771 2.79324 4.09139 4.08949C2.79514 5.3858 1.75566 6.94289 1.05406 8.63667C0.432718 10.1369 0.0773503 11.7475 0.0039943 13.3699C4.7268 12.643 8.04761 11.2544 10.1899 9.11212C12.3358 6.96629 13.3695 4.02938 13.4253 0L13.4254 6.33671e-05ZM14.5667 6.33671e-05C14.509 4.23214 13.3867 7.52993 10.9963 9.92044C8.58386 12.3329 4.95258 13.7854 0 14.525C0.0634019 16.1819 0.421623 17.8301 1.05609 19.3615C1.75776 21.0553 2.79698 22.6102 4.09342 23.9066C5.38986 25.203 6.9467 26.2442 8.6406 26.9459C10.1719 27.5803 11.8184 27.9369 13.475 28C14.2146 23.0474 15.6671 19.416 18.0795 17.0037C20.47 14.6132 23.7679 13.4911 28 13.4333C27.9328 11.7902 27.5771 10.1578 26.9478 8.63858C26.2461 6.94479 25.2049 5.38796 23.9084 4.09152C22.612 2.79495 21.0572 1.75579 19.3633 1.05412C17.8442 0.424729 16.21 0.0675865 14.5666 0L14.5667 6.33671e-05ZM27.9563 14.5746C23.9492 14.6372 21.024 15.6719 18.8858 17.81C16.7433 19.9526 15.3568 23.2721 14.63 27.9959C16.2528 27.9226 17.8651 27.5672 19.3654 26.9458C21.0591 26.2443 22.6142 25.2048 23.9105 23.9085C25.2068 22.6123 26.2464 21.0572 26.9478 19.3635C27.5759 17.8468 27.932 16.2154 27.9998 14.5747C27.9854 14.5748 27.9706 14.5744 27.9563 14.5746H27.9563Z" fill="#CECCD4"/>
</svg>
