<svg width="50" height="50" viewBox="0 0 28 28" fill="none" xmlns="http://www.w3.org/2000/svg">
<path d="M20.125 22.7423V3.9375C20.124 3.58971 19.9854 3.25646 19.7395 3.01054C19.4935 2.76462 19.1603 2.62601 18.8125 2.625H3.9375C3.58971 2.62601 3.25646 2.76462 3.01054 3.01054C2.76462 3.25646 2.62601 3.58971 2.625 3.9375V23.1875C2.62673 23.7671 2.85776 24.3225 3.26762 24.7324C3.67748 25.1422 4.23287 25.3733 4.8125 25.375H22.75" stroke="#CECCD4" stroke-width="1.40625" stroke-linejoin="round"/>
<path d="M22.75 25.375C22.0538 25.375 21.3861 25.0984 20.8938 24.6062C20.4016 24.1139 20.125 23.4462 20.125 22.75V7H24.0625C24.4106 7 24.7444 7.13828 24.9906 7.38442C25.2367 7.63056 25.375 7.9644 25.375 8.3125V22.75C25.375 23.4462 25.0984 24.1139 24.6062 24.6062C24.1139 25.0984 23.4462 25.375 22.75 25.375Z" stroke="#CECCD4" stroke-width="1.40625" stroke-linejoin="round"/>
<path d="M13.125 7H16.625M13.125 10.5H16.625M6.125 14H16.625M6.125 17.5H16.625M6.125 21H16.625" stroke="#CECCD4" stroke-width="1.40625" stroke-linecap="round" stroke-linejoin="round"/>
<path d="M9.625 11.375H6.125C5.89294 11.375 5.67038 11.2828 5.50628 11.1187C5.34219 10.9546 5.25 10.7321 5.25 10.5V7C5.25 6.76794 5.34219 6.54538 5.50628 6.38128C5.67038 6.21719 5.89294 6.125 6.125 6.125H9.625C9.85706 6.125 10.0796 6.21719 10.2437 6.38128C10.4078 6.54538 10.5 6.76794 10.5 7V10.5C10.5 10.7321 10.4078 10.9546 10.2437 11.1187C10.0796 11.2828 9.85706 11.375 9.625 11.375Z" fill="#CECCD4"/>
</svg>
