<svg width="50" height="50" viewBox="0 0 28 28" fill="none" xmlns="http://www.w3.org/2000/svg">
<g clip-path="url(#clip0_39_319)">
<path d="M12.6542 13.3153C12.6122 11.327 12.1909 9.365 11.4128 7.5348C6.44714 9.85355 2.79948 14.2285 1.55261 19.3911C2.2823 21.0629 3.34048 22.5712 4.66433 23.8262C5.92326 19.4486 8.77302 15.6996 12.6542 13.3153ZM10.6362 5.96527C9.80446 4.51613 8.7445 3.21057 7.49714 2.09886C2.52058 4.8223 -0.421612 10.4606 0.661201 16.4379C2.48776 11.8934 6.04245 8.12543 10.6362 5.96527ZM20.8956 14.9942C21.3659 9.53636 19.4026 4.1934 15.5635 0.534801C14.7596 0.441833 12.7417 0.23402 10.155 0.999645C13.3198 4.27918 15.1437 8.62376 15.2682 13.1796C17.0111 14.138 18.9212 14.7539 20.8956 14.9942ZM14.076 15.5137C12.3751 16.5464 10.8865 17.8939 9.69011 19.484C14.1745 22.6176 19.78 23.591 24.8659 22.0981C25.9599 20.6323 26.745 18.9597 27.1737 17.1817C25.7275 17.5502 24.2418 17.7412 22.7495 17.7504C19.7635 17.745 16.794 16.9793 14.076 15.5137ZM8.70026 20.9661C7.86901 22.3879 7.29479 23.941 6.94479 25.5707C9.3707 27.0597 12.2049 27.7445 15.043 27.5275C17.8811 27.3104 20.5782 26.2027 22.7495 24.3621C16.5753 25.2426 11.6315 23.0059 8.70026 20.9661ZM18.5604 1.24574C21.5846 5.09574 23.0721 10.0614 22.6401 15.1145C24.3061 15.118 25.9621 14.8559 27.5456 14.3379C27.5456 14.2285 27.562 14.1192 27.562 14.0098C27.562 8.11449 23.805 3.12152 18.5604 1.24574Z" fill="#CECCD4"/>
</g>
<defs>
<clipPath id="clip0_39_319">
<rect width="28" height="28" fill="white"/>
</clipPath>
</defs>
</svg>
