<svg width="50" height="50" viewBox="0 0 28 14" fill="none" xmlns="http://www.w3.org/2000/svg">
<path d="M14 6.7675C6.26719 6.7675 0 5.25187 0 3.38375C0 1.51564 6.26719 0 14 0C21.7328 0 28 1.51564 28 3.38375C28 5.25187 21.7328 6.7675 14 6.7675ZM24.5164 6.83095C25.8672 6.50315 27.0812 6.09075 28 5.57614V10.1513C28 12.0194 21.7328 13.535 14 13.535C6.26719 13.535 0 12.0194 0 10.1513V5.57967C0.91875 6.09428 2.13281 6.50667 3.48359 6.83447C6.26172 7.50418 9.98047 7.89542 14 7.89542C18.0195 7.89542 21.7383 7.50418 24.5164 6.83095Z" fill="#CECCD4"/>
</svg>
