<svg width="50" height="50" viewBox="0 0 29 28" fill="none" xmlns="http://www.w3.org/2000/svg">
<path d="M28.9678 13.996C28.9779 13.6633 29.0688 8.90759 26.1538 5.81177C26.0243 5.53504 25.41 4.41973 23.4274 3.05662C22.5484 2.39835 21.6148 1.81102 20.6361 1.30058L20.6323 1.29871C20.5085 1.23478 18.0909 0 15.1566 0C14.9338 0 14.7134 0.0125998 14.4954 0.0270663V0.0233329C12.2581 -0.0237996 10.0357 0.531991 8.69643 1.11578C7.50841 1.63377 6.1894 2.50222 6.09418 2.56942C4.44893 3.45794 1.32904 7.02368 1.08206 8.91319C0.0849469 10.1438 -0.748313 15.6713 1.08399 19.0383C2.36868 23.7175 7.20488 26.0592 7.58961 26.2388C7.82354 26.383 10.4591 27.9561 13.697 27.9561C13.8328 27.9561 14.654 28 14.9468 28C18.4466 28 23.6328 25.6182 24.7183 23.7525C27.701 21.646 29.2471 16.2173 28.9678 13.996ZM7.61619 21.0253C6.22952 18.8596 5.43927 16.0297 5.27011 15.3797C5.70897 14.7446 7.8738 11.6627 9.10726 10.7355C9.80567 10.8596 12.7221 11.3767 15.4727 11.8573C15.8183 12.7221 17.3345 16.5375 17.7685 18.0102C17.29 18.5581 15.4104 20.6711 13.5597 22.3259C11.595 22.3348 8.25322 21.2404 7.61619 21.0253ZM25.048 5.87057C25.0422 6.08057 24.9904 6.82722 24.6202 7.68447C23.8851 7.32188 22.0373 6.54536 19.5046 6.41423C19.1214 5.86777 17.6791 3.9624 15.4012 2.64082C15.7129 2.0519 16.147 1.33371 16.4007 1.11485C16.4829 1.09245 16.6105 1.07192 16.8048 1.07192C18.0261 1.07192 20.1364 1.84424 20.32 1.91283C20.5148 2.01223 24.308 3.98433 25.048 5.87057ZM4.72346 14.9387C3.06902 14.6662 2.08545 14.1696 1.79158 14.0016C1.17631 11.8471 1.67172 9.51844 1.74808 9.18478C2.35515 8.13666 4.08353 5.46504 5.22371 4.95778C6.40545 4.72492 7.87912 5.01425 8.47942 5.15565C8.42287 5.9093 8.31412 8.01487 8.63698 10.2245C7.32909 11.2409 5.25899 14.1664 4.72346 14.9387ZM14.3475 0.713988C14.7187 0.740588 15.2634 0.818986 15.6366 0.925851C15.2644 1.40371 14.883 2.1121 14.7028 2.46209C13.9439 2.58202 11.0618 3.11401 8.80083 4.52939C8.34505 4.41273 6.96853 4.10147 5.66499 4.2088C5.98785 3.60541 6.47022 3.15928 6.52193 3.11355C6.70125 2.98942 10.1532 0.657522 14.3475 0.707922V0.713988ZM23.5772 18.4904C23.0117 18.468 20.8328 18.3481 18.4437 17.8063C17.986 16.2654 16.4747 12.4659 16.1291 11.6016C17.2286 10.0884 18.3448 8.58664 19.4776 7.09648C22.2268 7.24208 24.1572 8.2104 24.5308 8.41246C26.1234 10.8853 26.4728 13.4108 26.5207 13.8327C25.6748 16.3741 24.002 18.0854 23.5772 18.4904ZM0.799792 12.3753C0.840391 12.9661 0.938507 13.5882 1.11589 14.2032C0.956417 14.6018 0.845788 15.017 0.786258 15.4403C0.685317 14.4208 0.68985 13.394 0.799792 12.3753ZM5.46102 23.276C6.18988 22.598 7.08839 21.9381 7.43687 21.6889C8.2247 21.9568 11.4601 23.0128 13.5225 23.0128C13.8739 23.4678 15.0227 24.8925 16.4312 25.9817C15.5544 26.81 14.2881 27.2011 14.0643 27.2659C10.1363 27.3677 6.31072 25.236 5.46102 23.276ZM15.8347 27.2603C16.2804 27.0098 16.7448 26.6798 17.1291 26.2622C17.756 26.1786 20.4462 25.7316 22.8773 24.0073C23.0378 24.0241 23.3022 24.0446 23.5975 24.0367C22.1388 25.4166 18.5796 26.958 15.8347 27.2603ZM23.2896 23.3516C24.163 21.1546 24.1258 19.4979 24.0827 18.9688C24.5622 18.5152 26.2075 16.8226 27.1205 14.2494C27.6125 14.3288 27.9325 14.4496 28.0842 14.5173C28.1369 14.704 28.2249 15.1351 28.1751 15.7889C27.8029 18.1423 26.5182 21.6688 24.2679 23.2279C24.0417 23.3395 23.6434 23.3637 23.2896 23.3516Z" fill="#CECCD4"/>
</svg>
