<svg width="50" height="50" viewBox="0 0 28 28" fill="none" xmlns="http://www.w3.org/2000/svg">
<path d="M28 14C28 21.7382 21.7382 28 14 28C6.26182 28 0 21.7382 0 14C0 6.26182 6.26182 0 14 0C21.7382 0 28 6.26182 28 14ZM15.2727 3.89455C17.9836 4.23818 20.4527 5.66364 22.1073 7.84L24.3218 6.56727C23.276 5.09272 21.9281 3.85787 20.3678 2.94494C18.8075 2.03202 17.0706 1.46196 15.2727 1.27273V3.89455ZM3.67818 6.56727L5.89273 7.84C6.71316 6.76177 7.74 5.85762 8.91339 5.18024C10.0868 4.50286 11.3833 4.06581 12.7273 3.89455V1.27273C10.9294 1.46196 9.19254 2.03202 7.63223 2.94494C6.07192 3.85787 4.72399 5.09272 3.67818 6.56727ZM2.40545 19.2182L4.60727 17.9455C4.0843 16.6958 3.81499 15.3547 3.81499 14C3.81499 12.6453 4.0843 11.3042 4.60727 10.0545L2.40545 8.78182C1.65698 10.4196 1.26959 12.1993 1.26959 14C1.26959 15.8007 1.65698 17.5804 2.40545 19.2182ZM12.7273 24.1055C11.3833 23.9342 10.0868 23.4971 8.91339 22.8198C7.74 22.1424 6.71316 21.2382 5.89273 20.16L3.67818 21.4327C4.72399 22.9073 6.07192 24.1421 7.63223 25.0551C9.19254 25.968 10.9294 26.538 12.7273 26.7273V24.1055ZM24.3218 21.4327L22.1073 20.16C21.2868 21.2382 20.26 22.1424 19.0866 22.8198C17.9132 23.4971 16.6167 23.9342 15.2727 24.1055V26.6509C18.9 26.2818 22.1964 24.3855 24.3218 21.4327ZM25.5945 19.2182C27.1091 15.9091 27.1091 12.0909 25.5945 8.78182L23.3927 10.0545C23.9157 11.3042 24.185 12.6453 24.185 14C24.185 15.3547 23.9157 16.6958 23.3927 17.9455L25.5945 19.2182ZM17.8182 14L14 7.63636L10.1818 14L14 20.3636L17.8182 14Z" fill="#CCCCCC"/>
</svg>
